<?xml version="1.0" standalone="no"?>
<!DOCTYPE svg PUBLIC "-//W3C//DTD SVG 20010904//EN"
 "http://www.w3.org/TR/2001/REC-SVG-20010904/DTD/svg10.dtd">
<svg version="1.0" xmlns="http://www.w3.org/2000/svg"
 width="353.000000pt" height="353.000000pt" viewBox="0 0 353.000000 353.000000"
 preserveAspectRatio="xMidYMid meet">
<metadata>
Created by potrace 1.14, written by Peter Selinger 2001-2017
</metadata>
<g transform="translate(0.000000,353.000000) scale(0.100000,-0.100000)"
fill="#000000" stroke="none">
<path d="M1635 3346 c-128 -41 -246 -141 -301 -256 -28 -59 -37 -83 -50 -145
-10 -45 -2 -194 12 -217 2 -3 -31 -26 -73 -50 -43 -23 -100 -55 -128 -71 -27
-15 -64 -35 -82 -44 -37 -19 -63 -66 -63 -115 0 -27 20 -64 91 -169 50 -74 97
-141 104 -149 12 -13 1 -22 -82 -65 -53 -28 -99 -51 -103 -53 -4 -1 -24 12
-46 29 -105 84 -238 124 -379 116 -150 -9 -254 -56 -361 -163 -109 -108 -164
-238 -165 -387 -1 -125 31 -226 103 -329 68 -97 192 -184 302 -212 l51 -13 30
-89 c42 -122 76 -191 136 -271 198 -265 530 -449 914 -507 90 -14 421 -15 495
-1 262 46 449 118 636 243 205 138 367 351 419 552 20 79 31 100 51 100 18 0
106 44 148 74 52 36 104 93 146 157 191 296 46 709 -289 822 -78 27 -96 29
-181 30 -123 1 -247 -39 -333 -106 l-38 -29 -94 46 c-52 25 -100 46 -108 46
-7 0 -17 4 -23 9 -19 19 -175 60 -319 85 -137 23 -439 24 -525 1 -8 -2 -31 -7
-50 -10 -19 -3 -42 -8 -50 -10 -8 -3 -20 -1 -25 3 -15 10 -149 211 -144 215 8
7 158 87 162 87 2 0 22 -14 43 -31 53 -42 138 -84 203 -99 77 -18 231 -8 300
19 435 175 428 786 -12 949 -47 18 -78 22 -170 21 -62 0 -130 -6 -152 -13z"/>
</g>
</svg>
